G04 #@! TF.GenerationSoftware,KiCad,Pcbnew,(6.0.6-0)*
G04 #@! TF.CreationDate,2022-08-12T01:41:24-04:00*
G04 #@! TF.ProjectId,August Lock Motion Board,41756775-7374-4204-9c6f-636b204d6f74,1*
G04 #@! TF.SameCoordinates,Original*
G04 #@! TF.FileFunction,Copper,L1,Top*
G04 #@! TF.FilePolarity,Positive*
%FSLAX46Y46*%
G04 Gerber Fmt 4.6, Leading zero omitted, Abs format (unit mm)*
G04 Created by KiCad (PCBNEW (6.0.6-0)) date 2022-08-12 01:41:24*
%MOMM*%
%LPD*%
G01*
G04 APERTURE LIST*
G04 Aperture macros list*
%AMRoundRect*
0 Rectangle with rounded corners*
0 $1 Rounding radius*
0 $2 $3 $4 $5 $6 $7 $8 $9 X,Y pos of 4 corners*
0 Add a 4 corners polygon primitive as box body*
4,1,4,$2,$3,$4,$5,$6,$7,$8,$9,$2,$3,0*
0 Add four circle primitives for the rounded corners*
1,1,$1+$1,$2,$3*
1,1,$1+$1,$4,$5*
1,1,$1+$1,$6,$7*
1,1,$1+$1,$8,$9*
0 Add four rect primitives between the rounded corners*
20,1,$1+$1,$2,$3,$4,$5,0*
20,1,$1+$1,$4,$5,$6,$7,0*
20,1,$1+$1,$6,$7,$8,$9,0*
20,1,$1+$1,$8,$9,$2,$3,0*%
G04 Aperture macros list end*
G04 #@! TA.AperFunction,SMDPad,CuDef*
%ADD10R,0.700000X0.350000*%
G04 #@! TD*
G04 #@! TA.AperFunction,SMDPad,CuDef*
%ADD11R,0.300000X0.650000*%
G04 #@! TD*
G04 #@! TA.AperFunction,SMDPad,CuDef*
%ADD12RoundRect,0.225000X-0.250000X0.225000X-0.250000X-0.225000X0.250000X-0.225000X0.250000X0.225000X0*%
G04 #@! TD*
G04 #@! TA.AperFunction,SMDPad,CuDef*
%ADD13RoundRect,0.200000X0.200000X0.275000X-0.200000X0.275000X-0.200000X-0.275000X0.200000X-0.275000X0*%
G04 #@! TD*
G04 #@! TA.AperFunction,SMDPad,CuDef*
%ADD14R,0.300000X0.800000*%
G04 #@! TD*
G04 #@! TA.AperFunction,SMDPad,CuDef*
%ADD15RoundRect,0.200000X-0.275000X0.200000X-0.275000X-0.200000X0.275000X-0.200000X0.275000X0.200000X0*%
G04 #@! TD*
G04 #@! TA.AperFunction,ViaPad*
%ADD16C,0.700000*%
G04 #@! TD*
G04 #@! TA.AperFunction,Conductor*
%ADD17C,0.200000*%
G04 #@! TD*
G04 APERTURE END LIST*
D10*
X138130000Y-101712500D03*
X138130000Y-102212500D03*
X138130000Y-102712500D03*
X138130000Y-103212500D03*
X138130000Y-103712500D03*
D11*
X138980000Y-104052500D03*
X139480000Y-104052500D03*
X139980000Y-104052500D03*
D10*
X140830000Y-103712500D03*
X140830000Y-103212500D03*
X140830000Y-102712500D03*
X140830000Y-102212500D03*
X140830000Y-101712500D03*
D11*
X139980000Y-101402500D03*
X139480000Y-101402500D03*
X138980000Y-101402500D03*
D12*
X136890000Y-99730000D03*
X136890000Y-101280000D03*
D13*
X140315000Y-99770000D03*
X138665000Y-99770000D03*
D14*
X140730000Y-105520000D03*
X140230000Y-105520000D03*
X139730000Y-105520000D03*
X139230000Y-105520000D03*
X138730000Y-105520000D03*
X138230000Y-105520000D03*
X137130000Y-108020000D03*
X141830000Y-108020000D03*
D15*
X142100000Y-99675000D03*
X142100000Y-101325000D03*
D16*
X138230000Y-106680000D03*
X141290000Y-104570000D03*
X137810000Y-99770000D03*
X138230000Y-101020000D03*
X136880000Y-100840000D03*
X139820000Y-96150000D03*
X139850000Y-102340000D03*
X139540000Y-107430000D03*
X140730000Y-106690000D03*
X142140000Y-98660000D03*
X136960000Y-105480000D03*
X137090000Y-103210000D03*
X139810000Y-98500000D03*
X139170000Y-103140000D03*
D17*
X139980000Y-104450000D02*
X139980000Y-104050000D01*
X141230000Y-104590000D02*
X140120000Y-104590000D01*
X141290000Y-104570000D02*
X141250000Y-104570000D01*
X138230000Y-105520000D02*
X138230000Y-106680000D01*
X137810000Y-99770000D02*
X136930000Y-99770000D01*
X141250000Y-104570000D02*
X141230000Y-104590000D01*
X139980000Y-100907500D02*
X139980000Y-101400000D01*
X138230000Y-101020000D02*
X138130000Y-101120000D01*
X137810000Y-99770000D02*
X138660000Y-99770000D01*
X140120000Y-104590000D02*
X139980000Y-104450000D01*
X138842500Y-99770000D02*
X139980000Y-100907500D01*
X138665000Y-99770000D02*
X138842500Y-99770000D01*
X136930000Y-99770000D02*
X136890000Y-99730000D01*
X138130000Y-101120000D02*
X138130000Y-101710000D01*
X140650000Y-106690000D02*
X140230000Y-106270000D01*
X140230000Y-106270000D02*
X140230000Y-105520000D01*
X140730000Y-106690000D02*
X140650000Y-106690000D01*
X142100000Y-98700000D02*
X142100000Y-99675000D01*
X142140000Y-98660000D02*
X142100000Y-98700000D01*
X139230000Y-104750000D02*
X138980000Y-104500000D01*
X139730000Y-105520000D02*
X139730000Y-104890000D01*
X139730000Y-104890000D02*
X139590000Y-104750000D01*
X139590000Y-104750000D02*
X139230000Y-104750000D01*
X138980000Y-104500000D02*
X138980000Y-104050000D01*
X137090000Y-103210000D02*
X138130000Y-103210000D01*
X138390000Y-104580000D02*
X138730000Y-104920000D01*
X137860000Y-104580000D02*
X138390000Y-104580000D01*
X136960000Y-105480000D02*
X137860000Y-104580000D01*
X138730000Y-104920000D02*
X138730000Y-105520000D01*
X141440000Y-102710000D02*
X140830000Y-102710000D01*
X142100000Y-101325000D02*
X142100000Y-102050000D01*
X142100000Y-102050000D02*
X141440000Y-102710000D01*
X139480000Y-103450000D02*
X139480000Y-104050000D01*
X139170000Y-103140000D02*
X139480000Y-103450000D01*
X140315000Y-99770000D02*
X140315000Y-99005000D01*
X140315000Y-99005000D02*
X139810000Y-98500000D01*
G04 #@! TA.AperFunction,Conductor*
G36*
X142066337Y-95441032D02*
G01*
X142076101Y-95441049D01*
X142089713Y-95444179D01*
X142101808Y-95441442D01*
X142106516Y-95441677D01*
X142229955Y-95453835D01*
X142241712Y-95454993D01*
X142265553Y-95459735D01*
X142399754Y-95500444D01*
X142422202Y-95509743D01*
X142545886Y-95575854D01*
X142566088Y-95589352D01*
X142674499Y-95678323D01*
X142691677Y-95695501D01*
X142780646Y-95803910D01*
X142794146Y-95824114D01*
X142860257Y-95947798D01*
X142869557Y-95970250D01*
X142910265Y-96104448D01*
X142915007Y-96128289D01*
X142928336Y-96263625D01*
X142928541Y-96267881D01*
X142925821Y-96279713D01*
X142928903Y-96293333D01*
X142928887Y-96302497D01*
X142929922Y-96311795D01*
X142927415Y-99248294D01*
X142907673Y-99315316D01*
X142854830Y-99361026D01*
X142785663Y-99370911D01*
X142722132Y-99341832D01*
X142692107Y-99302837D01*
X142676692Y-99271440D01*
X142676691Y-99271438D01*
X142672176Y-99262243D01*
X142664929Y-99255008D01*
X142664927Y-99255006D01*
X142614909Y-99205076D01*
X142587238Y-99177453D01*
X142578034Y-99172954D01*
X142578030Y-99172951D01*
X142577977Y-99172925D01*
X142577918Y-99172871D01*
X142569687Y-99167000D01*
X142570399Y-99166002D01*
X142526395Y-99125797D01*
X142508481Y-99058263D01*
X142529922Y-98991765D01*
X142540505Y-98978313D01*
X142561646Y-98954957D01*
X142561650Y-98954951D01*
X142567576Y-98948404D01*
X142631335Y-98816805D01*
X142655596Y-98672601D01*
X142655750Y-98660000D01*
X142652699Y-98638695D01*
X142636273Y-98523992D01*
X142636272Y-98523989D01*
X142635020Y-98515246D01*
X142625935Y-98495263D01*
X142598145Y-98434145D01*
X142574495Y-98382129D01*
X142479041Y-98271350D01*
X142356332Y-98191814D01*
X142253644Y-98161103D01*
X142195056Y-98123036D01*
X142166349Y-98059336D01*
X142176639Y-97990228D01*
X142181785Y-97980307D01*
X142183115Y-97978004D01*
X142183119Y-97977996D01*
X142186365Y-97972373D01*
X142245509Y-97790346D01*
X142265515Y-97600000D01*
X142245509Y-97409654D01*
X142186365Y-97227627D01*
X142160693Y-97183161D01*
X142093915Y-97067500D01*
X142090667Y-97061874D01*
X141962599Y-96919640D01*
X141807758Y-96807141D01*
X141632910Y-96729293D01*
X141563757Y-96714594D01*
X141452060Y-96690852D01*
X141452055Y-96690852D01*
X141445697Y-96689500D01*
X141254303Y-96689500D01*
X141247945Y-96690852D01*
X141247940Y-96690852D01*
X141136243Y-96714594D01*
X141067090Y-96729293D01*
X141048617Y-96737518D01*
X140921017Y-96794330D01*
X140892243Y-96807141D01*
X140886983Y-96810962D01*
X140886984Y-96810962D01*
X140789934Y-96881473D01*
X140737401Y-96919640D01*
X140733054Y-96924468D01*
X140733052Y-96924470D01*
X140675008Y-96988935D01*
X140609333Y-97061874D01*
X140606085Y-97067500D01*
X140539308Y-97183161D01*
X140513635Y-97227627D01*
X140454491Y-97409654D01*
X140434485Y-97600000D01*
X140454491Y-97790346D01*
X140513635Y-97972373D01*
X140516882Y-97977998D01*
X140516883Y-97977999D01*
X140542182Y-98021818D01*
X140609333Y-98138126D01*
X140737401Y-98280360D01*
X140892242Y-98392859D01*
X141067090Y-98470707D01*
X141134193Y-98484970D01*
X141247940Y-98509148D01*
X141247945Y-98509148D01*
X141254303Y-98510500D01*
X141445697Y-98510500D01*
X141477477Y-98503745D01*
X141547143Y-98509061D01*
X141602876Y-98551197D01*
X141626982Y-98616777D01*
X141625780Y-98644116D01*
X141624288Y-98653699D01*
X141643249Y-98798695D01*
X141702143Y-98932542D01*
X141707824Y-98939300D01*
X141707825Y-98939302D01*
X141719886Y-98953650D01*
X141747954Y-99017634D01*
X141736974Y-99086636D01*
X141690432Y-99138747D01*
X141679614Y-99144746D01*
X141621440Y-99173308D01*
X141621438Y-99173309D01*
X141612243Y-99177824D01*
X141605008Y-99185071D01*
X141605006Y-99185073D01*
X141585423Y-99204691D01*
X141527453Y-99262762D01*
X141474747Y-99370585D01*
X141464500Y-99440828D01*
X141464500Y-99909172D01*
X141474930Y-99980026D01*
X141527824Y-100087757D01*
X141535071Y-100094992D01*
X141535073Y-100094994D01*
X141570244Y-100130103D01*
X141612762Y-100172547D01*
X141720585Y-100225253D01*
X141757328Y-100230613D01*
X141786377Y-100234851D01*
X141786381Y-100234851D01*
X141790828Y-100235500D01*
X142409172Y-100235500D01*
X142480026Y-100225070D01*
X142505011Y-100212803D01*
X142578562Y-100176691D01*
X142578564Y-100176690D01*
X142587757Y-100172176D01*
X142594992Y-100164929D01*
X142594994Y-100164927D01*
X142656340Y-100103473D01*
X142672547Y-100087238D01*
X142691282Y-100048911D01*
X142738408Y-99997327D01*
X142805941Y-99979410D01*
X142872441Y-100000848D01*
X142916793Y-100054835D01*
X142926685Y-100103473D01*
X142926009Y-100895430D01*
X142906267Y-100962452D01*
X142853424Y-101008162D01*
X142784257Y-101018047D01*
X142720726Y-100988968D01*
X142690701Y-100949973D01*
X142676692Y-100921440D01*
X142676691Y-100921438D01*
X142672176Y-100912243D01*
X142664929Y-100905008D01*
X142664927Y-100905006D01*
X142611356Y-100851529D01*
X142587238Y-100827453D01*
X142479415Y-100774747D01*
X142439818Y-100768971D01*
X142413623Y-100765149D01*
X142413619Y-100765149D01*
X142409172Y-100764500D01*
X141790828Y-100764500D01*
X141719974Y-100774930D01*
X141711326Y-100779176D01*
X141621438Y-100823309D01*
X141621436Y-100823310D01*
X141612243Y-100827824D01*
X141605008Y-100835071D01*
X141605006Y-100835073D01*
X141588579Y-100851529D01*
X141527453Y-100912762D01*
X141474747Y-101020585D01*
X141464500Y-101090828D01*
X141464500Y-101196444D01*
X141444815Y-101263483D01*
X141392011Y-101309238D01*
X141322853Y-101319182D01*
X141293049Y-101311006D01*
X141265564Y-101299622D01*
X141210604Y-101288690D01*
X141198528Y-101287500D01*
X141022830Y-101287500D01*
X141007831Y-101291904D01*
X141006644Y-101293274D01*
X141005000Y-101300832D01*
X141005000Y-102253000D01*
X140985315Y-102320039D01*
X140932511Y-102365794D01*
X140881000Y-102377000D01*
X140464194Y-102377000D01*
X140458218Y-102378189D01*
X140458215Y-102378189D01*
X140423388Y-102385117D01*
X140399196Y-102387500D01*
X140247830Y-102387500D01*
X140232831Y-102391904D01*
X140231644Y-102393274D01*
X140230000Y-102400832D01*
X140230000Y-102406028D01*
X140231190Y-102418104D01*
X140242122Y-102473067D01*
X140251290Y-102495199D01*
X140298602Y-102566007D01*
X140319500Y-102634898D01*
X140319500Y-102790102D01*
X140298602Y-102858993D01*
X140251290Y-102929801D01*
X140242122Y-102951933D01*
X140231190Y-103006896D01*
X140230000Y-103018972D01*
X140230000Y-103019670D01*
X140234404Y-103034669D01*
X140235774Y-103035856D01*
X140243332Y-103037500D01*
X140399196Y-103037500D01*
X140423388Y-103039883D01*
X140458215Y-103046811D01*
X140458218Y-103046811D01*
X140464194Y-103048000D01*
X141195806Y-103048000D01*
X141201782Y-103046811D01*
X141201785Y-103046811D01*
X141236612Y-103039883D01*
X141260804Y-103037500D01*
X141412170Y-103037500D01*
X141427169Y-103033096D01*
X141448936Y-103007975D01*
X141456807Y-102993563D01*
X141520292Y-102959632D01*
X141529660Y-102957769D01*
X141529663Y-102957768D01*
X141541642Y-102955385D01*
X141627810Y-102897810D01*
X141634594Y-102887657D01*
X141634596Y-102887655D01*
X141635560Y-102886212D01*
X141650982Y-102867420D01*
X142257420Y-102260982D01*
X142276212Y-102245560D01*
X142277655Y-102244596D01*
X142277657Y-102244594D01*
X142287810Y-102237810D01*
X142345385Y-102151642D01*
X142360500Y-102075654D01*
X142365603Y-102050000D01*
X142362883Y-102036326D01*
X142360500Y-102012134D01*
X142360500Y-101999748D01*
X142380185Y-101932709D01*
X142432989Y-101886954D01*
X142466439Y-101877070D01*
X142480026Y-101875070D01*
X142515229Y-101857786D01*
X142578562Y-101826691D01*
X142578564Y-101826690D01*
X142587757Y-101822176D01*
X142594992Y-101814929D01*
X142594994Y-101814927D01*
X142653459Y-101756359D01*
X142672547Y-101737238D01*
X142680136Y-101721713D01*
X142689871Y-101701798D01*
X142736997Y-101650213D01*
X142804530Y-101632296D01*
X142871029Y-101653734D01*
X142915382Y-101707721D01*
X142925274Y-101756359D01*
X142923750Y-103541794D01*
X142919788Y-108183332D01*
X142919743Y-108235606D01*
X142900001Y-108302628D01*
X142847158Y-108348338D01*
X142795743Y-108359500D01*
X142354000Y-108359500D01*
X142286961Y-108339815D01*
X142241206Y-108287011D01*
X142230000Y-108235500D01*
X142230000Y-108187830D01*
X142225596Y-108172831D01*
X142224226Y-108171644D01*
X142216668Y-108170000D01*
X141447830Y-108170000D01*
X141432831Y-108174404D01*
X141431644Y-108175774D01*
X141430000Y-108183332D01*
X141430000Y-108235500D01*
X141410315Y-108302539D01*
X141357511Y-108348294D01*
X141306000Y-108359500D01*
X137654000Y-108359500D01*
X137586961Y-108339815D01*
X137541206Y-108287011D01*
X137530000Y-108235500D01*
X137530000Y-108187830D01*
X137525596Y-108172831D01*
X137524226Y-108171644D01*
X137516668Y-108170000D01*
X136747830Y-108170000D01*
X136732831Y-108174404D01*
X136731644Y-108175774D01*
X136730000Y-108183332D01*
X136730000Y-108235500D01*
X136710315Y-108302539D01*
X136657511Y-108348294D01*
X136606000Y-108359500D01*
X136244489Y-108359500D01*
X136177450Y-108339815D01*
X136131695Y-108287011D01*
X136120489Y-108235505D01*
X136120488Y-108187830D01*
X136120476Y-107852170D01*
X136730000Y-107852170D01*
X136734404Y-107867169D01*
X136735774Y-107868356D01*
X136743332Y-107870000D01*
X136962170Y-107870000D01*
X136977169Y-107865596D01*
X136978356Y-107864226D01*
X136980000Y-107856668D01*
X136980000Y-107852170D01*
X137280000Y-107852170D01*
X137284404Y-107867169D01*
X137285774Y-107868356D01*
X137293332Y-107870000D01*
X137512170Y-107870000D01*
X137527169Y-107865596D01*
X137528356Y-107864226D01*
X137530000Y-107856668D01*
X137530000Y-107852170D01*
X141430000Y-107852170D01*
X141434404Y-107867169D01*
X141435774Y-107868356D01*
X141443332Y-107870000D01*
X141662170Y-107870000D01*
X141677169Y-107865596D01*
X141678356Y-107864226D01*
X141680000Y-107856668D01*
X141680000Y-107852170D01*
X141980000Y-107852170D01*
X141984404Y-107867169D01*
X141985774Y-107868356D01*
X141993332Y-107870000D01*
X142212170Y-107870000D01*
X142227169Y-107865596D01*
X142228356Y-107864226D01*
X142230000Y-107856668D01*
X142230000Y-107601472D01*
X142228810Y-107589396D01*
X142217878Y-107534433D01*
X142208710Y-107512301D01*
X142167024Y-107449913D01*
X142150087Y-107432976D01*
X142087699Y-107391290D01*
X142065567Y-107382122D01*
X142010604Y-107371190D01*
X141998528Y-107370000D01*
X141997830Y-107370000D01*
X141982831Y-107374404D01*
X141981644Y-107375774D01*
X141980000Y-107383332D01*
X141980000Y-107852170D01*
X141680000Y-107852170D01*
X141680000Y-107387830D01*
X141675596Y-107372831D01*
X141674226Y-107371644D01*
X141666668Y-107370000D01*
X141661472Y-107370000D01*
X141649396Y-107371190D01*
X141594433Y-107382122D01*
X141572301Y-107391290D01*
X141509913Y-107432976D01*
X141492976Y-107449913D01*
X141451290Y-107512301D01*
X141442122Y-107534433D01*
X141431190Y-107589396D01*
X141430000Y-107601472D01*
X141430000Y-107852170D01*
X137530000Y-107852170D01*
X137530000Y-107601472D01*
X137528810Y-107589396D01*
X137517878Y-107534433D01*
X137508710Y-107512301D01*
X137467024Y-107449913D01*
X137450087Y-107432976D01*
X137387699Y-107391290D01*
X137365567Y-107382122D01*
X137310604Y-107371190D01*
X137298528Y-107370000D01*
X137297830Y-107370000D01*
X137282831Y-107374404D01*
X137281644Y-107375774D01*
X137280000Y-107383332D01*
X137280000Y-107852170D01*
X136980000Y-107852170D01*
X136980000Y-107387830D01*
X136975596Y-107372831D01*
X136974226Y-107371644D01*
X136966668Y-107370000D01*
X136961472Y-107370000D01*
X136949396Y-107371190D01*
X136894433Y-107382122D01*
X136872301Y-107391290D01*
X136809913Y-107432976D01*
X136792976Y-107449913D01*
X136751290Y-107512301D01*
X136742122Y-107534433D01*
X136731190Y-107589396D01*
X136730000Y-107601472D01*
X136730000Y-107852170D01*
X136120476Y-107852170D01*
X136120312Y-103391904D01*
X136120259Y-101957017D01*
X136139941Y-101889976D01*
X136192743Y-101844220D01*
X136261902Y-101834273D01*
X136318624Y-101857786D01*
X136402475Y-101920628D01*
X136417825Y-101929032D01*
X136529671Y-101970960D01*
X136544680Y-101974530D01*
X136591697Y-101979637D01*
X136598394Y-101980000D01*
X136622170Y-101980000D01*
X136637169Y-101975596D01*
X136638356Y-101974226D01*
X136640000Y-101966668D01*
X136640000Y-101154000D01*
X136659685Y-101086961D01*
X136712489Y-101041206D01*
X136764000Y-101030000D01*
X137016000Y-101030000D01*
X137083039Y-101049685D01*
X137128794Y-101102489D01*
X137140000Y-101154000D01*
X137140000Y-101962170D01*
X137144404Y-101977169D01*
X137145774Y-101978356D01*
X137153332Y-101980000D01*
X137181606Y-101980000D01*
X137188303Y-101979637D01*
X137235320Y-101974530D01*
X137250329Y-101970960D01*
X137362175Y-101929032D01*
X137377524Y-101920629D01*
X137426352Y-101884035D01*
X137491803Y-101859583D01*
X137560084Y-101874397D01*
X137609516Y-101923776D01*
X137624405Y-101992041D01*
X137622335Y-102007442D01*
X137619500Y-102021694D01*
X137619500Y-102403306D01*
X137626463Y-102438310D01*
X137626463Y-102486690D01*
X137619500Y-102521694D01*
X137619500Y-102716658D01*
X137599815Y-102783697D01*
X137547011Y-102829452D01*
X137477853Y-102839396D01*
X137428059Y-102820714D01*
X137306332Y-102741814D01*
X137297869Y-102739283D01*
X137297867Y-102739282D01*
X137174697Y-102702446D01*
X137174695Y-102702446D01*
X137166233Y-102699915D01*
X137157400Y-102699861D01*
X137104341Y-102699537D01*
X137020005Y-102699022D01*
X136879404Y-102739206D01*
X136755732Y-102817237D01*
X136658932Y-102926841D01*
X136626816Y-102995246D01*
X136602049Y-103048000D01*
X136596786Y-103059209D01*
X136574288Y-103203699D01*
X136593249Y-103348695D01*
X136652143Y-103482542D01*
X136657824Y-103489300D01*
X136657825Y-103489302D01*
X136685054Y-103521694D01*
X136746236Y-103594479D01*
X136753587Y-103599372D01*
X136753589Y-103599374D01*
X136840653Y-103657328D01*
X136867964Y-103675508D01*
X137007541Y-103719116D01*
X137016373Y-103719278D01*
X137016374Y-103719278D01*
X137070628Y-103720272D01*
X137153747Y-103721795D01*
X137294829Y-103683332D01*
X137419445Y-103606818D01*
X137425375Y-103600267D01*
X137425377Y-103600265D01*
X137445271Y-103578287D01*
X137504853Y-103541794D01*
X137537203Y-103537500D01*
X137699196Y-103537500D01*
X137723388Y-103539883D01*
X137758215Y-103546811D01*
X137758218Y-103546811D01*
X137764194Y-103548000D01*
X138181000Y-103548000D01*
X138248039Y-103567685D01*
X138293794Y-103620489D01*
X138305000Y-103672000D01*
X138305000Y-103763500D01*
X138285315Y-103830539D01*
X138232511Y-103876294D01*
X138181000Y-103887500D01*
X137547830Y-103887500D01*
X137532831Y-103891904D01*
X137531644Y-103893274D01*
X137530000Y-103900832D01*
X137530000Y-103906028D01*
X137531190Y-103918104D01*
X137542122Y-103973067D01*
X137551290Y-103995199D01*
X137592976Y-104057587D01*
X137609913Y-104074524D01*
X137672301Y-104116210D01*
X137705716Y-104130051D01*
X137704962Y-104131870D01*
X137753305Y-104157159D01*
X137787879Y-104217875D01*
X137784138Y-104287644D01*
X137743271Y-104344316D01*
X137736101Y-104349486D01*
X137672190Y-104392190D01*
X137665406Y-104402343D01*
X137665404Y-104402345D01*
X137664440Y-104403788D01*
X137649018Y-104422580D01*
X137136267Y-104935331D01*
X137074944Y-104968816D01*
X137036764Y-104970074D01*
X137036233Y-104969915D01*
X137027401Y-104969861D01*
X136971183Y-104969518D01*
X136890005Y-104969022D01*
X136749404Y-105009206D01*
X136625732Y-105087237D01*
X136528932Y-105196841D01*
X136466786Y-105329209D01*
X136444288Y-105473699D01*
X136463249Y-105618695D01*
X136522143Y-105752542D01*
X136616236Y-105864479D01*
X136623587Y-105869372D01*
X136623589Y-105869374D01*
X136641716Y-105881440D01*
X136737964Y-105945508D01*
X136877541Y-105989116D01*
X136886373Y-105989278D01*
X136886374Y-105989278D01*
X136940628Y-105990272D01*
X137023747Y-105991795D01*
X137164829Y-105953332D01*
X137289445Y-105876818D01*
X137306734Y-105857718D01*
X137381648Y-105774953D01*
X137387576Y-105768404D01*
X137451335Y-105636805D01*
X137475596Y-105492601D01*
X137475750Y-105480000D01*
X137469512Y-105436439D01*
X137466085Y-105412509D01*
X137476068Y-105343356D01*
X137501152Y-105307250D01*
X137707819Y-105100583D01*
X137769142Y-105067098D01*
X137838834Y-105072082D01*
X137894767Y-105113954D01*
X137919184Y-105179418D01*
X137919500Y-105188264D01*
X137919500Y-105935806D01*
X137928813Y-105982624D01*
X137935599Y-105992780D01*
X137935601Y-105992784D01*
X137948602Y-106012242D01*
X137969500Y-106081132D01*
X137969500Y-106172312D01*
X137949815Y-106239351D01*
X137911670Y-106277181D01*
X137895732Y-106287237D01*
X137798932Y-106396841D01*
X137736786Y-106529209D01*
X137735428Y-106537932D01*
X137720951Y-106630910D01*
X137714288Y-106673699D01*
X137733249Y-106818695D01*
X137792143Y-106952542D01*
X137797824Y-106959300D01*
X137797825Y-106959302D01*
X137810981Y-106974953D01*
X137886236Y-107064479D01*
X137893587Y-107069372D01*
X137893589Y-107069374D01*
X137980653Y-107127328D01*
X138007964Y-107145508D01*
X138147541Y-107189116D01*
X138156373Y-107189278D01*
X138156374Y-107189278D01*
X138210628Y-107190272D01*
X138293747Y-107191795D01*
X138434829Y-107153332D01*
X138559445Y-107076818D01*
X138576734Y-107057718D01*
X138651648Y-106974953D01*
X138657576Y-106968404D01*
X138721335Y-106836805D01*
X138745596Y-106692601D01*
X138745750Y-106680000D01*
X138743598Y-106664970D01*
X138726273Y-106543992D01*
X138726272Y-106543989D01*
X138725020Y-106535246D01*
X138718642Y-106521217D01*
X138701414Y-106483328D01*
X138664495Y-106402129D01*
X138569041Y-106291350D01*
X138569974Y-106290546D01*
X138537114Y-106239035D01*
X138537349Y-106169166D01*
X138575320Y-106110515D01*
X138638973Y-106081704D01*
X138656208Y-106080500D01*
X138832602Y-106080500D01*
X138901493Y-106101398D01*
X138972301Y-106148710D01*
X138994433Y-106157878D01*
X139049396Y-106168810D01*
X139061472Y-106170000D01*
X139062170Y-106170000D01*
X139077169Y-106165596D01*
X139078356Y-106164226D01*
X139080000Y-106156668D01*
X139080000Y-105494000D01*
X139099685Y-105426961D01*
X139152489Y-105381206D01*
X139204000Y-105370000D01*
X139256000Y-105370000D01*
X139323039Y-105389685D01*
X139368794Y-105442489D01*
X139380000Y-105494000D01*
X139380000Y-106152170D01*
X139384404Y-106167169D01*
X139385774Y-106168356D01*
X139393332Y-106170000D01*
X139398528Y-106170000D01*
X139410604Y-106168810D01*
X139465567Y-106157878D01*
X139487699Y-106148710D01*
X139558507Y-106101398D01*
X139627398Y-106080500D01*
X139845500Y-106080500D01*
X139912539Y-106100185D01*
X139958294Y-106152989D01*
X139969500Y-106204500D01*
X139969500Y-106232134D01*
X139967117Y-106256326D01*
X139964397Y-106270000D01*
X139969500Y-106295654D01*
X139984615Y-106371642D01*
X140042190Y-106457810D01*
X140052343Y-106464594D01*
X140052345Y-106464596D01*
X140053788Y-106465560D01*
X140072580Y-106480982D01*
X140179314Y-106587716D01*
X140212799Y-106649039D01*
X140215514Y-106675826D01*
X140214288Y-106683699D01*
X140215434Y-106692462D01*
X140230796Y-106809933D01*
X140233249Y-106828695D01*
X140292143Y-106962542D01*
X140297824Y-106969300D01*
X140297825Y-106969302D01*
X140305476Y-106978404D01*
X140386236Y-107074479D01*
X140393587Y-107079372D01*
X140393589Y-107079374D01*
X140411716Y-107091440D01*
X140507964Y-107155508D01*
X140540439Y-107165654D01*
X140624109Y-107191795D01*
X140647541Y-107199116D01*
X140656373Y-107199278D01*
X140656374Y-107199278D01*
X140710628Y-107200272D01*
X140793747Y-107201795D01*
X140934829Y-107163332D01*
X141059445Y-107086818D01*
X141075235Y-107069374D01*
X141151648Y-106984953D01*
X141157576Y-106978404D01*
X141221335Y-106846805D01*
X141245596Y-106702601D01*
X141245655Y-106697809D01*
X141245692Y-106694785D01*
X141245692Y-106694779D01*
X141245750Y-106690000D01*
X141245072Y-106685263D01*
X141226273Y-106553992D01*
X141226272Y-106553989D01*
X141225020Y-106545246D01*
X141220474Y-106535246D01*
X141191873Y-106472344D01*
X141164495Y-106412129D01*
X141069041Y-106301350D01*
X140988128Y-106248905D01*
X140942579Y-106195923D01*
X140932905Y-106126726D01*
X140962177Y-106063284D01*
X140983608Y-106044451D01*
X140985561Y-106042498D01*
X140995714Y-106035714D01*
X141031187Y-105982624D01*
X141040500Y-105935806D01*
X141040500Y-105195580D01*
X141060185Y-105128541D01*
X141112989Y-105082786D01*
X141182147Y-105072842D01*
X141195963Y-105075972D01*
X141199109Y-105076482D01*
X141207541Y-105079116D01*
X141216373Y-105079278D01*
X141216374Y-105079278D01*
X141270628Y-105080272D01*
X141353747Y-105081795D01*
X141494829Y-105043332D01*
X141619445Y-104966818D01*
X141647946Y-104935331D01*
X141688977Y-104890000D01*
X141717576Y-104858404D01*
X141781335Y-104726805D01*
X141805596Y-104582601D01*
X141805750Y-104570000D01*
X141802160Y-104544932D01*
X141786273Y-104433992D01*
X141786272Y-104433989D01*
X141785020Y-104425246D01*
X141779881Y-104413942D01*
X141743812Y-104334615D01*
X141724495Y-104292129D01*
X141649850Y-104205500D01*
X141634806Y-104188040D01*
X141634804Y-104188038D01*
X141629041Y-104181350D01*
X141506332Y-104101814D01*
X141420642Y-104076187D01*
X141362054Y-104038119D01*
X141333347Y-103974419D01*
X141334555Y-103933195D01*
X141339310Y-103909288D01*
X141340500Y-103903306D01*
X141340500Y-103634898D01*
X141361398Y-103566007D01*
X141408710Y-103495199D01*
X141417878Y-103473067D01*
X141428810Y-103418104D01*
X141430000Y-103406028D01*
X141430000Y-103405330D01*
X141425596Y-103390331D01*
X141424226Y-103389144D01*
X141416668Y-103387500D01*
X141260804Y-103387500D01*
X141236612Y-103385117D01*
X141201785Y-103378189D01*
X141201782Y-103378189D01*
X141195806Y-103377000D01*
X140464194Y-103377000D01*
X140458218Y-103378189D01*
X140458215Y-103378189D01*
X140423388Y-103385117D01*
X140399196Y-103387500D01*
X140247830Y-103387500D01*
X140232831Y-103391904D01*
X140231644Y-103393274D01*
X140230000Y-103400832D01*
X140230000Y-103406028D01*
X140231189Y-103418102D01*
X140231329Y-103418804D01*
X140231295Y-103419179D01*
X140231786Y-103424159D01*
X140230842Y-103424252D01*
X140225105Y-103488396D01*
X140182244Y-103543575D01*
X140109713Y-103567000D01*
X139867220Y-103567000D01*
X139800181Y-103547315D01*
X139754426Y-103494511D01*
X139745192Y-103452065D01*
X139745603Y-103450000D01*
X139739398Y-103418804D01*
X139727768Y-103360336D01*
X139727767Y-103360334D01*
X139725385Y-103348358D01*
X139697123Y-103306061D01*
X139696275Y-103304793D01*
X139694622Y-103302317D01*
X139673756Y-103235636D01*
X139675454Y-103212880D01*
X139685596Y-103152601D01*
X139685750Y-103140000D01*
X139684848Y-103133699D01*
X139666273Y-103003992D01*
X139666272Y-103003989D01*
X139665020Y-102995246D01*
X139655759Y-102974876D01*
X139633918Y-102926841D01*
X139604495Y-102862129D01*
X139524737Y-102769566D01*
X139514806Y-102758040D01*
X139514804Y-102758038D01*
X139509041Y-102751350D01*
X139386332Y-102671814D01*
X139377869Y-102669283D01*
X139377867Y-102669282D01*
X139254697Y-102632446D01*
X139254695Y-102632446D01*
X139246233Y-102629915D01*
X139237400Y-102629861D01*
X139184341Y-102629537D01*
X139100005Y-102629022D01*
X138959404Y-102669206D01*
X138835732Y-102747237D01*
X138834720Y-102745633D01*
X138781059Y-102769566D01*
X138711991Y-102759010D01*
X138659595Y-102712789D01*
X138640500Y-102646677D01*
X138640500Y-102521694D01*
X138633537Y-102486690D01*
X138633537Y-102438310D01*
X138640500Y-102403306D01*
X138640500Y-102095798D01*
X138660185Y-102028759D01*
X138712989Y-101983004D01*
X138788692Y-101974181D01*
X138799398Y-101976311D01*
X138811472Y-101977500D01*
X138812170Y-101977500D01*
X138827169Y-101973096D01*
X138828356Y-101971726D01*
X138830000Y-101964168D01*
X138830000Y-101959670D01*
X139130000Y-101959670D01*
X139134404Y-101974669D01*
X139135774Y-101975856D01*
X139143332Y-101977500D01*
X139148528Y-101977500D01*
X139160597Y-101976311D01*
X139205810Y-101967318D01*
X139254190Y-101967318D01*
X139299403Y-101976311D01*
X139311472Y-101977500D01*
X139312170Y-101977500D01*
X139327169Y-101973096D01*
X139328356Y-101971726D01*
X139330000Y-101964168D01*
X139330000Y-101570330D01*
X139325596Y-101555331D01*
X139324226Y-101554144D01*
X139316668Y-101552500D01*
X139147830Y-101552500D01*
X139132831Y-101556904D01*
X139131644Y-101558274D01*
X139130000Y-101565832D01*
X139130000Y-101959670D01*
X138830000Y-101959670D01*
X138830000Y-100845330D01*
X138825596Y-100830331D01*
X138824226Y-100829144D01*
X138816668Y-100827500D01*
X138811473Y-100827500D01*
X138796257Y-100828999D01*
X138727611Y-100815981D01*
X138676899Y-100767918D01*
X138671221Y-100756922D01*
X138668151Y-100750170D01*
X138664495Y-100742129D01*
X138654234Y-100730220D01*
X138575953Y-100639372D01*
X138569041Y-100631350D01*
X138561629Y-100626546D01*
X138557499Y-100622943D01*
X138519920Y-100564040D01*
X138520151Y-100494171D01*
X138558120Y-100435518D01*
X138621772Y-100406704D01*
X138639012Y-100405500D01*
X138899172Y-100405500D01*
X138970026Y-100395070D01*
X138978675Y-100390823D01*
X138987880Y-100387963D01*
X138988410Y-100389670D01*
X139045870Y-100379755D01*
X139110216Y-100406984D01*
X139119357Y-100415259D01*
X139330026Y-100625928D01*
X139363511Y-100687251D01*
X139358527Y-100756943D01*
X139316655Y-100812876D01*
X139266531Y-100835227D01*
X139254186Y-100837682D01*
X139205810Y-100837682D01*
X139160597Y-100828689D01*
X139148528Y-100827500D01*
X139147830Y-100827500D01*
X139132831Y-100831904D01*
X139131644Y-100833274D01*
X139130000Y-100840832D01*
X139130000Y-101234670D01*
X139134404Y-101249669D01*
X139135774Y-101250856D01*
X139143332Y-101252500D01*
X139506000Y-101252500D01*
X139573039Y-101272185D01*
X139618794Y-101324989D01*
X139630000Y-101376500D01*
X139630000Y-101959670D01*
X139634404Y-101974669D01*
X139635774Y-101975856D01*
X139643332Y-101977500D01*
X139648528Y-101977500D01*
X139660604Y-101976310D01*
X139715567Y-101965378D01*
X139737699Y-101956210D01*
X139808507Y-101908898D01*
X139877398Y-101888000D01*
X140106086Y-101888000D01*
X140173125Y-101907685D01*
X140218880Y-101960489D01*
X140227110Y-102009827D01*
X140228005Y-102012876D01*
X140230000Y-102012876D01*
X140230000Y-102019670D01*
X140234404Y-102034669D01*
X140235774Y-102035856D01*
X140243332Y-102037500D01*
X140637170Y-102037500D01*
X140652169Y-102033096D01*
X140653356Y-102031726D01*
X140655000Y-102024168D01*
X140655000Y-101305330D01*
X140650596Y-101290331D01*
X140649226Y-101289144D01*
X140641668Y-101287500D01*
X140461472Y-101287500D01*
X140449398Y-101288689D01*
X140438692Y-101290819D01*
X140369101Y-101284592D01*
X140313923Y-101241730D01*
X140290500Y-101169202D01*
X140290500Y-101061694D01*
X140281187Y-101014876D01*
X140264118Y-100989330D01*
X140243221Y-100920440D01*
X140243221Y-100919479D01*
X140245604Y-100907500D01*
X140231716Y-100837682D01*
X140227768Y-100817835D01*
X140227767Y-100817833D01*
X140225385Y-100805858D01*
X140167810Y-100719690D01*
X140157657Y-100712906D01*
X140157655Y-100712904D01*
X140156212Y-100711940D01*
X140137420Y-100696518D01*
X140058083Y-100617181D01*
X140024598Y-100555858D01*
X140029582Y-100486166D01*
X140071454Y-100430233D01*
X140136918Y-100405816D01*
X140145764Y-100405500D01*
X140549172Y-100405500D01*
X140620026Y-100395070D01*
X140651219Y-100379755D01*
X140718562Y-100346691D01*
X140718564Y-100346690D01*
X140727757Y-100342176D01*
X140734992Y-100334929D01*
X140734994Y-100334927D01*
X140770103Y-100299756D01*
X140812547Y-100257238D01*
X140865253Y-100149415D01*
X140874248Y-100087757D01*
X140874851Y-100083623D01*
X140874851Y-100083619D01*
X140875500Y-100079172D01*
X140875500Y-99460828D01*
X140865070Y-99389974D01*
X140841433Y-99341832D01*
X140816691Y-99291438D01*
X140816690Y-99291436D01*
X140812176Y-99282243D01*
X140804929Y-99275008D01*
X140804927Y-99275006D01*
X140769756Y-99239897D01*
X140727238Y-99197453D01*
X140645044Y-99157275D01*
X140593460Y-99110149D01*
X140575500Y-99045872D01*
X140575500Y-99042872D01*
X140577883Y-99018680D01*
X140578221Y-99016981D01*
X140578221Y-99016979D01*
X140580604Y-99005000D01*
X140567535Y-98939302D01*
X140562768Y-98915335D01*
X140562767Y-98915333D01*
X140560385Y-98903358D01*
X140517342Y-98838939D01*
X140502810Y-98817190D01*
X140492657Y-98810406D01*
X140492655Y-98810404D01*
X140491215Y-98809442D01*
X140472423Y-98794020D01*
X140351420Y-98673017D01*
X140317935Y-98611694D01*
X140316820Y-98564763D01*
X140325596Y-98512601D01*
X140325685Y-98505351D01*
X140325692Y-98504785D01*
X140325692Y-98504779D01*
X140325750Y-98500000D01*
X140324848Y-98493699D01*
X140306273Y-98363992D01*
X140306272Y-98363989D01*
X140305020Y-98355246D01*
X140299903Y-98343990D01*
X140268776Y-98275532D01*
X140244495Y-98222129D01*
X140207625Y-98179340D01*
X140154806Y-98118040D01*
X140154804Y-98118038D01*
X140149041Y-98111350D01*
X140133291Y-98101141D01*
X140118358Y-98091463D01*
X140026332Y-98031814D01*
X140017869Y-98029283D01*
X140017867Y-98029282D01*
X139894697Y-97992446D01*
X139894695Y-97992446D01*
X139886233Y-97989915D01*
X139877400Y-97989861D01*
X139824341Y-97989537D01*
X139740005Y-97989022D01*
X139599404Y-98029206D01*
X139475732Y-98107237D01*
X139378932Y-98216841D01*
X139349110Y-98280360D01*
X139322271Y-98337527D01*
X139316786Y-98349209D01*
X139309578Y-98395502D01*
X139300669Y-98452721D01*
X139294288Y-98493699D01*
X139301807Y-98551197D01*
X139311826Y-98627810D01*
X139313249Y-98638695D01*
X139372143Y-98772542D01*
X139377824Y-98779300D01*
X139377825Y-98779302D01*
X139416034Y-98824757D01*
X139466236Y-98884479D01*
X139473587Y-98889372D01*
X139473589Y-98889374D01*
X139538440Y-98932542D01*
X139587964Y-98965508D01*
X139727541Y-99009116D01*
X139736372Y-99009278D01*
X139736373Y-99009278D01*
X139752067Y-99009565D01*
X139792728Y-99010310D01*
X139859395Y-99031219D01*
X139904175Y-99084852D01*
X139912850Y-99154181D01*
X139878214Y-99221893D01*
X139824693Y-99275508D01*
X139824690Y-99275513D01*
X139817453Y-99282762D01*
X139764747Y-99390585D01*
X139763358Y-99400109D01*
X139756762Y-99445325D01*
X139754500Y-99460828D01*
X139754500Y-100014236D01*
X139734815Y-100081275D01*
X139682011Y-100127030D01*
X139612853Y-100136974D01*
X139549297Y-100107949D01*
X139542819Y-100101917D01*
X139261819Y-99820917D01*
X139228334Y-99759594D01*
X139225500Y-99733236D01*
X139225500Y-99460828D01*
X139215070Y-99389974D01*
X139191433Y-99341832D01*
X139166691Y-99291438D01*
X139166690Y-99291436D01*
X139162176Y-99282243D01*
X139154929Y-99275008D01*
X139154927Y-99275006D01*
X139119756Y-99239897D01*
X139077238Y-99197453D01*
X138969415Y-99144747D01*
X138925502Y-99138341D01*
X138903623Y-99135149D01*
X138903619Y-99135149D01*
X138899172Y-99134500D01*
X138430828Y-99134500D01*
X138359974Y-99144930D01*
X138351326Y-99149176D01*
X138261438Y-99193309D01*
X138261436Y-99193310D01*
X138252243Y-99197824D01*
X138245005Y-99205074D01*
X138245003Y-99205076D01*
X138170120Y-99280090D01*
X138108826Y-99313629D01*
X138039130Y-99308706D01*
X138033077Y-99306186D01*
X138026332Y-99301814D01*
X138017869Y-99299283D01*
X138017867Y-99299282D01*
X137894697Y-99262446D01*
X137894695Y-99262446D01*
X137886233Y-99259915D01*
X137877400Y-99259861D01*
X137824341Y-99259537D01*
X137740005Y-99259022D01*
X137599404Y-99299206D01*
X137594143Y-99302525D01*
X137526214Y-99311754D01*
X137462886Y-99282236D01*
X137457209Y-99276915D01*
X137374208Y-99194058D01*
X137374207Y-99194057D01*
X137366956Y-99186819D01*
X137357751Y-99182320D01*
X137357749Y-99182318D01*
X137289947Y-99149176D01*
X137251656Y-99130459D01*
X137242132Y-99129070D01*
X137242130Y-99129069D01*
X137180986Y-99120149D01*
X137180981Y-99120149D01*
X137176535Y-99119500D01*
X136891206Y-99119500D01*
X136603466Y-99119501D01*
X136552576Y-99126991D01*
X136537229Y-99129250D01*
X136537228Y-99129250D01*
X136527691Y-99130654D01*
X136512308Y-99138207D01*
X136421684Y-99182701D01*
X136421682Y-99182702D01*
X136412489Y-99187216D01*
X136405254Y-99194463D01*
X136405252Y-99194465D01*
X136401899Y-99197824D01*
X136331914Y-99267932D01*
X136270621Y-99301469D01*
X136200925Y-99296546D01*
X136144955Y-99254723D01*
X136120481Y-99189280D01*
X136120157Y-99180331D01*
X136120093Y-97435262D01*
X136994520Y-97435262D01*
X136994902Y-97439815D01*
X137011759Y-97640553D01*
X137068544Y-97838586D01*
X137162712Y-98021818D01*
X137166480Y-98026572D01*
X137195402Y-98063062D01*
X137290677Y-98183270D01*
X137295296Y-98187201D01*
X137442950Y-98312865D01*
X137442955Y-98312869D01*
X137447564Y-98316791D01*
X137627398Y-98417297D01*
X137736422Y-98452721D01*
X137795938Y-98472059D01*
X137823329Y-98480959D01*
X137829347Y-98481677D01*
X137829349Y-98481677D01*
X137943290Y-98495263D01*
X138027894Y-98505351D01*
X138033938Y-98504886D01*
X138033939Y-98504886D01*
X138097437Y-98500000D01*
X138233300Y-98489546D01*
X138318596Y-98465731D01*
X138425885Y-98435776D01*
X138425889Y-98435774D01*
X138431725Y-98434145D01*
X138615610Y-98341258D01*
X138777951Y-98214424D01*
X138781907Y-98209840D01*
X138781911Y-98209837D01*
X138908602Y-98063062D01*
X138912564Y-98058472D01*
X138926512Y-98033920D01*
X139011327Y-97884618D01*
X139014323Y-97879344D01*
X139046549Y-97782468D01*
X139077439Y-97689611D01*
X139077439Y-97689610D01*
X139079351Y-97683863D01*
X139084823Y-97640553D01*
X139104736Y-97482919D01*
X139104736Y-97482915D01*
X139105171Y-97479474D01*
X139105583Y-97450000D01*
X139101021Y-97403475D01*
X139086072Y-97251006D01*
X139086072Y-97251004D01*
X139085480Y-97244970D01*
X139025935Y-97047749D01*
X138957819Y-96919640D01*
X138932065Y-96871203D01*
X138932064Y-96871201D01*
X138929218Y-96865849D01*
X138799011Y-96706200D01*
X138781864Y-96692015D01*
X138644946Y-96578746D01*
X138644945Y-96578745D01*
X138640275Y-96574882D01*
X138459055Y-96476897D01*
X138449991Y-96474091D01*
X138268046Y-96417770D01*
X138268047Y-96417770D01*
X138262254Y-96415977D01*
X138057369Y-96394443D01*
X138051336Y-96394992D01*
X138051332Y-96394992D01*
X137925721Y-96406424D01*
X137852203Y-96413114D01*
X137846390Y-96414825D01*
X137846389Y-96414825D01*
X137842475Y-96415977D01*
X137654572Y-96471280D01*
X137570819Y-96515065D01*
X137477374Y-96563917D01*
X137477370Y-96563920D01*
X137472002Y-96566726D01*
X137467279Y-96570523D01*
X137467278Y-96570524D01*
X137317620Y-96690852D01*
X137311447Y-96695815D01*
X137179024Y-96853630D01*
X137079776Y-97034162D01*
X137077942Y-97039944D01*
X137077941Y-97039946D01*
X137062229Y-97089478D01*
X137017484Y-97230532D01*
X136994520Y-97435262D01*
X136120093Y-97435262D01*
X136120052Y-96312566D01*
X136122127Y-96294416D01*
X136121791Y-96294377D01*
X136122594Y-96287406D01*
X136124178Y-96280575D01*
X136124179Y-96280000D01*
X136123046Y-96275031D01*
X136122890Y-96251178D01*
X136134993Y-96128289D01*
X136139735Y-96104448D01*
X136180443Y-95970250D01*
X136189743Y-95947798D01*
X136255854Y-95824114D01*
X136269354Y-95803910D01*
X136358323Y-95695501D01*
X136375501Y-95678323D01*
X136483912Y-95589352D01*
X136504114Y-95575854D01*
X136627798Y-95509743D01*
X136650246Y-95500444D01*
X136784447Y-95459735D01*
X136808289Y-95454993D01*
X136943625Y-95441664D01*
X136947881Y-95441459D01*
X136959713Y-95444179D01*
X136973335Y-95441097D01*
X136982308Y-95441112D01*
X136991809Y-95440051D01*
X142057689Y-95440051D01*
X142066337Y-95441032D01*
G37*
G04 #@! TD.AperFunction*
M02*
