G04 #@! TF.GenerationSoftware,KiCad,Pcbnew,(6.0.6-0)*
G04 #@! TF.CreationDate,2022-08-12T01:41:24-04:00*
G04 #@! TF.ProjectId,August Lock Motion Board,41756775-7374-4204-9c6f-636b204d6f74,1*
G04 #@! TF.SameCoordinates,Original*
G04 #@! TF.FileFunction,Legend,Bot*
G04 #@! TF.FilePolarity,Positive*
%FSLAX46Y46*%
G04 Gerber Fmt 4.6, Leading zero omitted, Abs format (unit mm)*
G04 Created by KiCad (PCBNEW (6.0.6-0)) date 2022-08-12 01:41:24*
%MOMM*%
%LPD*%
G01*
G04 APERTURE LIST*
%ADD10C,0.120000*%
G04 APERTURE END LIST*
D10*
X142678190Y-99431833D02*
X142368666Y-99431833D01*
X142740095Y-99617547D02*
X142523428Y-98967547D01*
X142306761Y-99617547D01*
X141811523Y-99184214D02*
X141811523Y-99617547D01*
X142090095Y-99184214D02*
X142090095Y-99524690D01*
X142059142Y-99586595D01*
X141997238Y-99617547D01*
X141904380Y-99617547D01*
X141842476Y-99586595D01*
X141811523Y-99555642D01*
X141223428Y-99184214D02*
X141223428Y-99710404D01*
X141254380Y-99772309D01*
X141285333Y-99803261D01*
X141347238Y-99834214D01*
X141440095Y-99834214D01*
X141502000Y-99803261D01*
X141223428Y-99586595D02*
X141285333Y-99617547D01*
X141409142Y-99617547D01*
X141471047Y-99586595D01*
X141502000Y-99555642D01*
X141532952Y-99493738D01*
X141532952Y-99308023D01*
X141502000Y-99246119D01*
X141471047Y-99215166D01*
X141409142Y-99184214D01*
X141285333Y-99184214D01*
X141223428Y-99215166D01*
X140635333Y-99184214D02*
X140635333Y-99617547D01*
X140913904Y-99184214D02*
X140913904Y-99524690D01*
X140882952Y-99586595D01*
X140821047Y-99617547D01*
X140728190Y-99617547D01*
X140666285Y-99586595D01*
X140635333Y-99555642D01*
X140356761Y-99586595D02*
X140294857Y-99617547D01*
X140171047Y-99617547D01*
X140109142Y-99586595D01*
X140078190Y-99524690D01*
X140078190Y-99493738D01*
X140109142Y-99431833D01*
X140171047Y-99400880D01*
X140263904Y-99400880D01*
X140325809Y-99369928D01*
X140356761Y-99308023D01*
X140356761Y-99277071D01*
X140325809Y-99215166D01*
X140263904Y-99184214D01*
X140171047Y-99184214D01*
X140109142Y-99215166D01*
X139892476Y-99184214D02*
X139644857Y-99184214D01*
X139799619Y-98967547D02*
X139799619Y-99524690D01*
X139768666Y-99586595D01*
X139706761Y-99617547D01*
X139644857Y-99617547D01*
X138963904Y-99586595D02*
X138871047Y-99617547D01*
X138716285Y-99617547D01*
X138654380Y-99586595D01*
X138623428Y-99555642D01*
X138592476Y-99493738D01*
X138592476Y-99431833D01*
X138623428Y-99369928D01*
X138654380Y-99338976D01*
X138716285Y-99308023D01*
X138840095Y-99277071D01*
X138902000Y-99246119D01*
X138932952Y-99215166D01*
X138963904Y-99153261D01*
X138963904Y-99091357D01*
X138932952Y-99029452D01*
X138902000Y-98998500D01*
X138840095Y-98967547D01*
X138685333Y-98967547D01*
X138592476Y-98998500D01*
X138313904Y-99617547D02*
X138313904Y-99184214D01*
X138313904Y-99246119D02*
X138282952Y-99215166D01*
X138221047Y-99184214D01*
X138128190Y-99184214D01*
X138066285Y-99215166D01*
X138035333Y-99277071D01*
X138035333Y-99617547D01*
X138035333Y-99277071D02*
X138004380Y-99215166D01*
X137942476Y-99184214D01*
X137849619Y-99184214D01*
X137787714Y-99215166D01*
X137756761Y-99277071D01*
X137756761Y-99617547D01*
X137168666Y-99617547D02*
X137168666Y-99277071D01*
X137199619Y-99215166D01*
X137261523Y-99184214D01*
X137385333Y-99184214D01*
X137447238Y-99215166D01*
X137168666Y-99586595D02*
X137230571Y-99617547D01*
X137385333Y-99617547D01*
X137447238Y-99586595D01*
X137478190Y-99524690D01*
X137478190Y-99462785D01*
X137447238Y-99400880D01*
X137385333Y-99369928D01*
X137230571Y-99369928D01*
X137168666Y-99338976D01*
X136859142Y-99617547D02*
X136859142Y-99184214D01*
X136859142Y-99308023D02*
X136828190Y-99246119D01*
X136797238Y-99215166D01*
X136735333Y-99184214D01*
X136673428Y-99184214D01*
X136549619Y-99184214D02*
X136302000Y-99184214D01*
X136456761Y-98967547D02*
X136456761Y-99524690D01*
X136425809Y-99586595D01*
X136363904Y-99617547D01*
X136302000Y-99617547D01*
X142337714Y-100664047D02*
X142647238Y-100664047D01*
X142647238Y-100014047D01*
X142028190Y-100664047D02*
X142090095Y-100633095D01*
X142121047Y-100602142D01*
X142152000Y-100540238D01*
X142152000Y-100354523D01*
X142121047Y-100292619D01*
X142090095Y-100261666D01*
X142028190Y-100230714D01*
X141935333Y-100230714D01*
X141873428Y-100261666D01*
X141842476Y-100292619D01*
X141811523Y-100354523D01*
X141811523Y-100540238D01*
X141842476Y-100602142D01*
X141873428Y-100633095D01*
X141935333Y-100664047D01*
X142028190Y-100664047D01*
X141254380Y-100633095D02*
X141316285Y-100664047D01*
X141440095Y-100664047D01*
X141502000Y-100633095D01*
X141532952Y-100602142D01*
X141563904Y-100540238D01*
X141563904Y-100354523D01*
X141532952Y-100292619D01*
X141502000Y-100261666D01*
X141440095Y-100230714D01*
X141316285Y-100230714D01*
X141254380Y-100261666D01*
X140975809Y-100664047D02*
X140975809Y-100014047D01*
X140913904Y-100416428D02*
X140728190Y-100664047D01*
X140728190Y-100230714D02*
X140975809Y-100478333D01*
X139954380Y-100664047D02*
X139954380Y-100014047D01*
X139737714Y-100478333D01*
X139521047Y-100014047D01*
X139521047Y-100664047D01*
X139118666Y-100664047D02*
X139180571Y-100633095D01*
X139211523Y-100602142D01*
X139242476Y-100540238D01*
X139242476Y-100354523D01*
X139211523Y-100292619D01*
X139180571Y-100261666D01*
X139118666Y-100230714D01*
X139025809Y-100230714D01*
X138963904Y-100261666D01*
X138932952Y-100292619D01*
X138902000Y-100354523D01*
X138902000Y-100540238D01*
X138932952Y-100602142D01*
X138963904Y-100633095D01*
X139025809Y-100664047D01*
X139118666Y-100664047D01*
X138716285Y-100230714D02*
X138468666Y-100230714D01*
X138623428Y-100014047D02*
X138623428Y-100571190D01*
X138592476Y-100633095D01*
X138530571Y-100664047D01*
X138468666Y-100664047D01*
X138252000Y-100664047D02*
X138252000Y-100230714D01*
X138252000Y-100014047D02*
X138282952Y-100045000D01*
X138252000Y-100075952D01*
X138221047Y-100045000D01*
X138252000Y-100014047D01*
X138252000Y-100075952D01*
X137849619Y-100664047D02*
X137911523Y-100633095D01*
X137942476Y-100602142D01*
X137973428Y-100540238D01*
X137973428Y-100354523D01*
X137942476Y-100292619D01*
X137911523Y-100261666D01*
X137849619Y-100230714D01*
X137756761Y-100230714D01*
X137694857Y-100261666D01*
X137663904Y-100292619D01*
X137632952Y-100354523D01*
X137632952Y-100540238D01*
X137663904Y-100602142D01*
X137694857Y-100633095D01*
X137756761Y-100664047D01*
X137849619Y-100664047D01*
X137354380Y-100230714D02*
X137354380Y-100664047D01*
X137354380Y-100292619D02*
X137323428Y-100261666D01*
X137261523Y-100230714D01*
X137168666Y-100230714D01*
X137106761Y-100261666D01*
X137075809Y-100323571D01*
X137075809Y-100664047D01*
X142678190Y-101679595D02*
X142585333Y-101710547D01*
X142430571Y-101710547D01*
X142368666Y-101679595D01*
X142337714Y-101648642D01*
X142306761Y-101586738D01*
X142306761Y-101524833D01*
X142337714Y-101462928D01*
X142368666Y-101431976D01*
X142430571Y-101401023D01*
X142554380Y-101370071D01*
X142616285Y-101339119D01*
X142647238Y-101308166D01*
X142678190Y-101246261D01*
X142678190Y-101184357D01*
X142647238Y-101122452D01*
X142616285Y-101091500D01*
X142554380Y-101060547D01*
X142399619Y-101060547D01*
X142306761Y-101091500D01*
X141780571Y-101679595D02*
X141842476Y-101710547D01*
X141966285Y-101710547D01*
X142028190Y-101679595D01*
X142059142Y-101617690D01*
X142059142Y-101370071D01*
X142028190Y-101308166D01*
X141966285Y-101277214D01*
X141842476Y-101277214D01*
X141780571Y-101308166D01*
X141749619Y-101370071D01*
X141749619Y-101431976D01*
X142059142Y-101493880D01*
X141471047Y-101277214D02*
X141471047Y-101710547D01*
X141471047Y-101339119D02*
X141440095Y-101308166D01*
X141378190Y-101277214D01*
X141285333Y-101277214D01*
X141223428Y-101308166D01*
X141192476Y-101370071D01*
X141192476Y-101710547D01*
X140913904Y-101679595D02*
X140852000Y-101710547D01*
X140728190Y-101710547D01*
X140666285Y-101679595D01*
X140635333Y-101617690D01*
X140635333Y-101586738D01*
X140666285Y-101524833D01*
X140728190Y-101493880D01*
X140821047Y-101493880D01*
X140882952Y-101462928D01*
X140913904Y-101401023D01*
X140913904Y-101370071D01*
X140882952Y-101308166D01*
X140821047Y-101277214D01*
X140728190Y-101277214D01*
X140666285Y-101308166D01*
X140263904Y-101710547D02*
X140325809Y-101679595D01*
X140356761Y-101648642D01*
X140387714Y-101586738D01*
X140387714Y-101401023D01*
X140356761Y-101339119D01*
X140325809Y-101308166D01*
X140263904Y-101277214D01*
X140171047Y-101277214D01*
X140109142Y-101308166D01*
X140078190Y-101339119D01*
X140047238Y-101401023D01*
X140047238Y-101586738D01*
X140078190Y-101648642D01*
X140109142Y-101679595D01*
X140171047Y-101710547D01*
X140263904Y-101710547D01*
X139768666Y-101710547D02*
X139768666Y-101277214D01*
X139768666Y-101401023D02*
X139737714Y-101339119D01*
X139706761Y-101308166D01*
X139644857Y-101277214D01*
X139582952Y-101277214D01*
X138654380Y-101370071D02*
X138561523Y-101401023D01*
X138530571Y-101431976D01*
X138499619Y-101493880D01*
X138499619Y-101586738D01*
X138530571Y-101648642D01*
X138561523Y-101679595D01*
X138623428Y-101710547D01*
X138871047Y-101710547D01*
X138871047Y-101060547D01*
X138654380Y-101060547D01*
X138592476Y-101091500D01*
X138561523Y-101122452D01*
X138530571Y-101184357D01*
X138530571Y-101246261D01*
X138561523Y-101308166D01*
X138592476Y-101339119D01*
X138654380Y-101370071D01*
X138871047Y-101370071D01*
X138128190Y-101710547D02*
X138190095Y-101679595D01*
X138221047Y-101648642D01*
X138252000Y-101586738D01*
X138252000Y-101401023D01*
X138221047Y-101339119D01*
X138190095Y-101308166D01*
X138128190Y-101277214D01*
X138035333Y-101277214D01*
X137973428Y-101308166D01*
X137942476Y-101339119D01*
X137911523Y-101401023D01*
X137911523Y-101586738D01*
X137942476Y-101648642D01*
X137973428Y-101679595D01*
X138035333Y-101710547D01*
X138128190Y-101710547D01*
X137354380Y-101710547D02*
X137354380Y-101370071D01*
X137385333Y-101308166D01*
X137447238Y-101277214D01*
X137571047Y-101277214D01*
X137632952Y-101308166D01*
X137354380Y-101679595D02*
X137416285Y-101710547D01*
X137571047Y-101710547D01*
X137632952Y-101679595D01*
X137663904Y-101617690D01*
X137663904Y-101555785D01*
X137632952Y-101493880D01*
X137571047Y-101462928D01*
X137416285Y-101462928D01*
X137354380Y-101431976D01*
X137044857Y-101710547D02*
X137044857Y-101277214D01*
X137044857Y-101401023D02*
X137013904Y-101339119D01*
X136982952Y-101308166D01*
X136921047Y-101277214D01*
X136859142Y-101277214D01*
X136363904Y-101710547D02*
X136363904Y-101060547D01*
X136363904Y-101679595D02*
X136425809Y-101710547D01*
X136549619Y-101710547D01*
X136611523Y-101679595D01*
X136642476Y-101648642D01*
X136673428Y-101586738D01*
X136673428Y-101401023D01*
X136642476Y-101339119D01*
X136611523Y-101308166D01*
X136549619Y-101277214D01*
X136425809Y-101277214D01*
X136363904Y-101308166D01*
X141985809Y-105987547D02*
X142202476Y-105678023D01*
X142357238Y-105987547D02*
X142357238Y-105337547D01*
X142109619Y-105337547D01*
X142047714Y-105368500D01*
X142016761Y-105399452D01*
X141985809Y-105461357D01*
X141985809Y-105554214D01*
X142016761Y-105616119D01*
X142047714Y-105647071D01*
X142109619Y-105678023D01*
X142357238Y-105678023D01*
X141366761Y-105987547D02*
X141738190Y-105987547D01*
X141552476Y-105987547D02*
X141552476Y-105337547D01*
X141614380Y-105430404D01*
X141676285Y-105492309D01*
X141738190Y-105523261D01*
X140469142Y-105337547D02*
X140407238Y-105337547D01*
X140345333Y-105368500D01*
X140314380Y-105399452D01*
X140283428Y-105461357D01*
X140252476Y-105585166D01*
X140252476Y-105739928D01*
X140283428Y-105863738D01*
X140314380Y-105925642D01*
X140345333Y-105956595D01*
X140407238Y-105987547D01*
X140469142Y-105987547D01*
X140531047Y-105956595D01*
X140562000Y-105925642D01*
X140592952Y-105863738D01*
X140623904Y-105739928D01*
X140623904Y-105585166D01*
X140592952Y-105461357D01*
X140562000Y-105399452D01*
X140531047Y-105368500D01*
X140469142Y-105337547D01*
X139354857Y-105337547D02*
X139231047Y-105337547D01*
X139169142Y-105368500D01*
X139107238Y-105430404D01*
X139076285Y-105554214D01*
X139076285Y-105770880D01*
X139107238Y-105894690D01*
X139169142Y-105956595D01*
X139231047Y-105987547D01*
X139354857Y-105987547D01*
X139416761Y-105956595D01*
X139478666Y-105894690D01*
X139509619Y-105770880D01*
X139509619Y-105554214D01*
X139478666Y-105430404D01*
X139416761Y-105368500D01*
X139354857Y-105337547D01*
X138797714Y-105987547D02*
X138797714Y-105337547D01*
X138519142Y-105987547D02*
X138519142Y-105647071D01*
X138550095Y-105585166D01*
X138612000Y-105554214D01*
X138704857Y-105554214D01*
X138766761Y-105585166D01*
X138797714Y-105616119D01*
X138209619Y-105987547D02*
X138209619Y-105554214D01*
X138209619Y-105616119D02*
X138178666Y-105585166D01*
X138116761Y-105554214D01*
X138023904Y-105554214D01*
X137962000Y-105585166D01*
X137931047Y-105647071D01*
X137931047Y-105987547D01*
X137931047Y-105647071D02*
X137900095Y-105585166D01*
X137838190Y-105554214D01*
X137745333Y-105554214D01*
X137683428Y-105585166D01*
X137652476Y-105647071D01*
X137652476Y-105987547D01*
X141985809Y-107034047D02*
X142202476Y-106724523D01*
X142357238Y-107034047D02*
X142357238Y-106384047D01*
X142109619Y-106384047D01*
X142047714Y-106415000D01*
X142016761Y-106445952D01*
X141985809Y-106507857D01*
X141985809Y-106600714D01*
X142016761Y-106662619D01*
X142047714Y-106693571D01*
X142109619Y-106724523D01*
X142357238Y-106724523D01*
X141738190Y-106445952D02*
X141707238Y-106415000D01*
X141645333Y-106384047D01*
X141490571Y-106384047D01*
X141428666Y-106415000D01*
X141397714Y-106445952D01*
X141366761Y-106507857D01*
X141366761Y-106569761D01*
X141397714Y-106662619D01*
X141769142Y-107034047D01*
X141366761Y-107034047D01*
X140252476Y-107034047D02*
X140623904Y-107034047D01*
X140438190Y-107034047D02*
X140438190Y-106384047D01*
X140500095Y-106476904D01*
X140562000Y-106538809D01*
X140623904Y-106569761D01*
X139850095Y-106384047D02*
X139788190Y-106384047D01*
X139726285Y-106415000D01*
X139695333Y-106445952D01*
X139664380Y-106507857D01*
X139633428Y-106631666D01*
X139633428Y-106786428D01*
X139664380Y-106910238D01*
X139695333Y-106972142D01*
X139726285Y-107003095D01*
X139788190Y-107034047D01*
X139850095Y-107034047D01*
X139912000Y-107003095D01*
X139942952Y-106972142D01*
X139973904Y-106910238D01*
X140004857Y-106786428D01*
X140004857Y-106631666D01*
X139973904Y-106507857D01*
X139942952Y-106445952D01*
X139912000Y-106415000D01*
X139850095Y-106384047D01*
X139354857Y-107034047D02*
X139354857Y-106384047D01*
X138983428Y-107034047D02*
X139262000Y-106662619D01*
X138983428Y-106384047D02*
X139354857Y-106755476D01*
X138085809Y-106384047D02*
X137962000Y-106384047D01*
X137900095Y-106415000D01*
X137838190Y-106476904D01*
X137807238Y-106600714D01*
X137807238Y-106817380D01*
X137838190Y-106941190D01*
X137900095Y-107003095D01*
X137962000Y-107034047D01*
X138085809Y-107034047D01*
X138147714Y-107003095D01*
X138209619Y-106941190D01*
X138240571Y-106817380D01*
X138240571Y-106600714D01*
X138209619Y-106476904D01*
X138147714Y-106415000D01*
X138085809Y-106384047D01*
X137528666Y-107034047D02*
X137528666Y-106384047D01*
X137250095Y-107034047D02*
X137250095Y-106693571D01*
X137281047Y-106631666D01*
X137342952Y-106600714D01*
X137435809Y-106600714D01*
X137497714Y-106631666D01*
X137528666Y-106662619D01*
X136940571Y-107034047D02*
X136940571Y-106600714D01*
X136940571Y-106662619D02*
X136909619Y-106631666D01*
X136847714Y-106600714D01*
X136754857Y-106600714D01*
X136692952Y-106631666D01*
X136662000Y-106693571D01*
X136662000Y-107034047D01*
X136662000Y-106693571D02*
X136631047Y-106631666D01*
X136569142Y-106600714D01*
X136476285Y-106600714D01*
X136414380Y-106631666D01*
X136383428Y-106693571D01*
X136383428Y-107034047D01*
X141985809Y-108018642D02*
X142016761Y-108049595D01*
X142109619Y-108080547D01*
X142171523Y-108080547D01*
X142264380Y-108049595D01*
X142326285Y-107987690D01*
X142357238Y-107925785D01*
X142388190Y-107801976D01*
X142388190Y-107709119D01*
X142357238Y-107585309D01*
X142326285Y-107523404D01*
X142264380Y-107461500D01*
X142171523Y-107430547D01*
X142109619Y-107430547D01*
X142016761Y-107461500D01*
X141985809Y-107492452D01*
X141366761Y-108080547D02*
X141738190Y-108080547D01*
X141552476Y-108080547D02*
X141552476Y-107430547D01*
X141614380Y-107523404D01*
X141676285Y-107585309D01*
X141738190Y-107616261D01*
X140252476Y-108080547D02*
X140623904Y-108080547D01*
X140438190Y-108080547D02*
X140438190Y-107430547D01*
X140500095Y-107523404D01*
X140562000Y-107585309D01*
X140623904Y-107616261D01*
X139850095Y-107430547D02*
X139788190Y-107430547D01*
X139726285Y-107461500D01*
X139695333Y-107492452D01*
X139664380Y-107554357D01*
X139633428Y-107678166D01*
X139633428Y-107832928D01*
X139664380Y-107956738D01*
X139695333Y-108018642D01*
X139726285Y-108049595D01*
X139788190Y-108080547D01*
X139850095Y-108080547D01*
X139912000Y-108049595D01*
X139942952Y-108018642D01*
X139973904Y-107956738D01*
X140004857Y-107832928D01*
X140004857Y-107678166D01*
X139973904Y-107554357D01*
X139942952Y-107492452D01*
X139912000Y-107461500D01*
X139850095Y-107430547D01*
X139231047Y-107430547D02*
X139169142Y-107430547D01*
X139107238Y-107461500D01*
X139076285Y-107492452D01*
X139045333Y-107554357D01*
X139014380Y-107678166D01*
X139014380Y-107832928D01*
X139045333Y-107956738D01*
X139076285Y-108018642D01*
X139107238Y-108049595D01*
X139169142Y-108080547D01*
X139231047Y-108080547D01*
X139292952Y-108049595D01*
X139323904Y-108018642D01*
X139354857Y-107956738D01*
X139385809Y-107832928D01*
X139385809Y-107678166D01*
X139354857Y-107554357D01*
X139323904Y-107492452D01*
X139292952Y-107461500D01*
X139231047Y-107430547D01*
X138735809Y-107647214D02*
X138735809Y-108080547D01*
X138735809Y-107709119D02*
X138704857Y-107678166D01*
X138642952Y-107647214D01*
X138550095Y-107647214D01*
X138488190Y-107678166D01*
X138457238Y-107740071D01*
X138457238Y-108080547D01*
X137931047Y-107740071D02*
X138147714Y-107740071D01*
X138147714Y-108080547D02*
X138147714Y-107430547D01*
X137838190Y-107430547D01*
X141830000Y-102753166D02*
X141830000Y-103253166D01*
X141863333Y-103353166D01*
X141930000Y-103419833D01*
X142030000Y-103453166D01*
X142096666Y-103453166D01*
X141230000Y-103419833D02*
X141296666Y-103453166D01*
X141430000Y-103453166D01*
X141496666Y-103419833D01*
X141530000Y-103353166D01*
X141530000Y-103086500D01*
X141496666Y-103019833D01*
X141430000Y-102986500D01*
X141296666Y-102986500D01*
X141230000Y-103019833D01*
X141196666Y-103086500D01*
X141196666Y-103153166D01*
X141530000Y-103219833D01*
X140996666Y-102986500D02*
X140730000Y-102986500D01*
X140896666Y-103453166D02*
X140896666Y-102853166D01*
X140863333Y-102786500D01*
X140796666Y-102753166D01*
X140730000Y-102753166D01*
X140596666Y-102986500D02*
X140330000Y-102986500D01*
X140496666Y-103453166D02*
X140496666Y-102853166D01*
X140463333Y-102786500D01*
X140396666Y-102753166D01*
X140330000Y-102753166D01*
X139163333Y-103386500D02*
X139196666Y-103419833D01*
X139296666Y-103453166D01*
X139363333Y-103453166D01*
X139463333Y-103419833D01*
X139530000Y-103353166D01*
X139563333Y-103286500D01*
X139596666Y-103153166D01*
X139596666Y-103053166D01*
X139563333Y-102919833D01*
X139530000Y-102853166D01*
X139463333Y-102786500D01*
X139363333Y-102753166D01*
X139296666Y-102753166D01*
X139196666Y-102786500D01*
X139163333Y-102819833D01*
X138863333Y-103453166D02*
X138863333Y-102753166D01*
X138563333Y-103453166D02*
X138563333Y-103086500D01*
X138596666Y-103019833D01*
X138663333Y-102986500D01*
X138763333Y-102986500D01*
X138830000Y-103019833D01*
X138863333Y-103053166D01*
X137963333Y-103419833D02*
X138030000Y-103453166D01*
X138163333Y-103453166D01*
X138230000Y-103419833D01*
X138263333Y-103353166D01*
X138263333Y-103086500D01*
X138230000Y-103019833D01*
X138163333Y-102986500D01*
X138030000Y-102986500D01*
X137963333Y-103019833D01*
X137930000Y-103086500D01*
X137930000Y-103153166D01*
X138263333Y-103219833D01*
X137630000Y-102986500D02*
X137630000Y-103453166D01*
X137630000Y-103053166D02*
X137596666Y-103019833D01*
X137530000Y-102986500D01*
X137430000Y-102986500D01*
X137363333Y-103019833D01*
X137330000Y-103086500D01*
X137330000Y-103453166D01*
X140880000Y-103946833D02*
X140846666Y-103913500D01*
X140780000Y-103880166D01*
X140613333Y-103880166D01*
X140546666Y-103913500D01*
X140513333Y-103946833D01*
X140480000Y-104013500D01*
X140480000Y-104080166D01*
X140513333Y-104180166D01*
X140913333Y-104580166D01*
X140480000Y-104580166D01*
X140046666Y-103880166D02*
X139980000Y-103880166D01*
X139913333Y-103913500D01*
X139880000Y-103946833D01*
X139846666Y-104013500D01*
X139813333Y-104146833D01*
X139813333Y-104313500D01*
X139846666Y-104446833D01*
X139880000Y-104513500D01*
X139913333Y-104546833D01*
X139980000Y-104580166D01*
X140046666Y-104580166D01*
X140113333Y-104546833D01*
X140146666Y-104513500D01*
X140180000Y-104446833D01*
X140213333Y-104313500D01*
X140213333Y-104146833D01*
X140180000Y-104013500D01*
X140146666Y-103946833D01*
X140113333Y-103913500D01*
X140046666Y-103880166D01*
X139546666Y-103946833D02*
X139513333Y-103913500D01*
X139446666Y-103880166D01*
X139280000Y-103880166D01*
X139213333Y-103913500D01*
X139180000Y-103946833D01*
X139146666Y-104013500D01*
X139146666Y-104080166D01*
X139180000Y-104180166D01*
X139580000Y-104580166D01*
X139146666Y-104580166D01*
X138880000Y-103946833D02*
X138846666Y-103913500D01*
X138780000Y-103880166D01*
X138613333Y-103880166D01*
X138546666Y-103913500D01*
X138513333Y-103946833D01*
X138480000Y-104013500D01*
X138480000Y-104080166D01*
X138513333Y-104180166D01*
X138913333Y-104580166D01*
X138480000Y-104580166D01*
%LPC*%
M02*
